<svg xmlns="http://www.w3.org/2000/svg" viewBox="0 0 960 250" font-family="Segoe UI, Arial, sans-serif">
  <defs>
    <marker id="a" viewBox="0 0 10 10" refX="9" refY="5" markerWidth="7" markerHeight="7" orient="auto-start-reverse">
      <path d="M0,0 L10,5 L0,10 z" fill="#8b7cf7"/>
    </marker>
  </defs>
  <rect width="960" height="250" rx="14" fill="#12101c"/>

  <rect x="24" y="52" width="212" height="150" rx="12" fill="#1d1930" stroke="#3a3357"/>
  <text x="130" y="40" text-anchor="middle" fill="#c9c3e8" font-size="14" font-weight="600">DANS LE JEU</text>
  <text x="130" y="92" text-anchor="middle" fill="#fff" font-size="13">🕹️ Jeu sélectionné</text>
  <text x="130" y="122" text-anchor="middle" fill="#fff" font-size="13">🏆 Score qui monte</text>
  <text x="130" y="152" text-anchor="middle" fill="#fff" font-size="13">🎖️ Succès débloqué</text>
  <text x="130" y="184" text-anchor="middle" fill="#8f88ad" font-size="10.5">médias + données en direct</text>

  <line x1="244" y1="127" x2="298" y2="127" stroke="#8b7cf7" stroke-width="3" marker-end="url(#a)"/>

  <rect x="306" y="52" width="180" height="150" rx="12" fill="#1d1930" stroke="#3a3357"/>
  <text x="396" y="40" text-anchor="middle" fill="#c9c3e8" font-size="14" font-weight="600">APIEXPOSE</text>
  <text x="396" y="110" text-anchor="middle" fill="#fff" font-size="13">Fournit logos, scores,</text>
  <text x="396" y="135" text-anchor="middle" fill="#fff" font-size="13">timers et succès</text>
  <text x="396" y="184" text-anchor="middle" fill="#8f88ad" font-size="10.5">zéro scraping externe</text>

  <line x1="494" y1="127" x2="548" y2="127" stroke="#8b7cf7" stroke-width="3" marker-end="url(#a)"/>

  <rect x="556" y="52" width="180" height="150" rx="12" fill="#241d3f" stroke="#8b7cf7" stroke-width="1.5"/>
  <text x="646" y="40" text-anchor="middle" fill="#c9c3e8" font-size="14" font-weight="600">MARQUEEMANAGER</text>
  <text x="646" y="110" text-anchor="middle" fill="#fff" font-size="13">Habille chaque surface</text>
  <text x="646" y="135" text-anchor="middle" fill="#fff" font-size="13">au bon écran</text>
  <text x="646" y="184" text-anchor="middle" fill="#8f88ad" font-size="10.5">effets lumière inclus</text>

  <line x1="744" y1="95" x2="796" y2="82" stroke="#8b7cf7" stroke-width="3" marker-end="url(#a)"/>
  <line x1="744" y1="127" x2="796" y2="127" stroke="#8b7cf7" stroke-width="3" marker-end="url(#a)"/>
  <line x1="744" y1="159" x2="796" y2="172" stroke="#8b7cf7" stroke-width="3" marker-end="url(#a)"/>

  <rect x="804" y="52" width="132" height="44" rx="10" fill="#1d1930" stroke="#3a3357"/>
  <text x="870" y="79" text-anchor="middle" fill="#fff" font-size="12.5">🖥️ Marquee</text>
  <rect x="804" y="105" width="132" height="44" rx="10" fill="#1d1930" stroke="#3a3357"/>
  <text x="870" y="132" text-anchor="middle" fill="#fff" font-size="12.5">📺 Topper + carte</text>
  <rect x="804" y="158" width="132" height="44" rx="10" fill="#1d1930" stroke="#3a3357"/>
  <text x="870" y="185" text-anchor="middle" fill="#fff" font-size="12.5">🟠 DMD</text>

  <text x="480" y="232" text-anchor="middle" fill="#6f6890" font-size="11.5">Le jeu vit — vos écrans aussi.</text>
</svg>
